<svg xmlns="http://www.w3.org/2000/svg" width="256" height="256" viewBox="0 0 100 100"><rect width="100" height="100" rx="20" fill="#7d6ee7"></rect><path d="M49.80 50.69L49.80 67.78Q49.80 69.80 48.95 70.90Q48.10 71.99 46.23 72.96L46.23 72.96Q45.18 73.61 43.60 74.14Q42.02 74.66 40.12 75.03Q38.21 75.39 36.19 75.64Q34.16 75.88 32.14 75.88L32.14 75.88Q26.39 75.88 21.49 74.38Q16.59 72.88 12.98 69.72Q9.38 66.56 7.35 61.70Q5.33 56.84 5.33 50.12L5.33 50.12Q5.33 43.72 7.39 38.82Q9.46 33.92 13.06 30.68Q16.67 27.44 21.45 25.78Q26.23 24.12 31.73 24.12L31.73 24.12Q35.38 24.12 38.34 24.73Q41.29 25.34 43.44 26.35Q45.59 27.36 46.72 28.78Q47.85 30.20 47.85 31.73L47.85 31.73Q47.85 33.35 46.96 34.57Q46.07 35.78 44.94 36.43L44.94 36.43Q42.83 35.06 39.83 33.88Q36.84 32.71 32.46 32.71L32.46 32.71Q28.90 32.71 25.90 33.88Q22.91 35.06 20.76 37.24Q18.61 39.43 17.40 42.67Q16.18 45.91 16.18 50.04L16.18 50.04Q16.18 54.50 17.40 57.74Q18.61 60.98 20.76 63.12Q22.91 65.27 25.86 66.28Q28.82 67.29 32.30 67.29L32.30 67.29Q34.65 67.29 36.59 66.89Q38.54 66.48 39.59 65.92L39.59 65.92L39.59 54.66L29.22 54.66Q28.82 54.01 28.49 52.96Q28.17 51.90 28.17 50.61L28.17 50.61Q28.17 48.50 29.18 47.45Q30.20 46.40 31.82 46.40L31.82 46.40L45.42 46.40Q47.45 46.40 48.62 47.53Q49.80 48.66 49.80 50.69L49.80 50.69ZM66.40 74.75L66.40 74.75Q63.81 74.75 62.31 73.21Q60.81 71.67 60.81 69.08L60.81 69.08L60.81 31.01Q60.81 28.41 62.31 26.91Q63.81 25.42 66.40 25.42L66.40 25.42L93.21 25.42Q93.62 26.06 93.94 27.12Q94.27 28.17 94.27 29.47L94.27 29.47Q94.27 31.57 93.29 32.71Q92.32 33.84 90.62 33.84L90.62 33.84L71.02 33.84L71.02 45.34L90.78 45.34Q91.19 45.99 91.55 47.00Q91.92 48.02 91.92 49.31L91.92 49.31Q91.92 53.69 88.19 53.69L88.19 53.69L71.02 53.69L71.02 66.24L93.54 66.24Q93.94 66.89 94.31 67.98Q94.67 69.08 94.67 70.37L94.67 70.37Q94.67 74.75 90.95 74.75L90.95 74.75L66.40 74.75Z" fill="#fff"></path></svg>